<mxfile host="app.diagrams.net" modified="2023-01-17T13:50:08.059Z" agent="5.0 (Macintosh; Intel Mac OS X 10_15_7) AppleWebKit/605.1.15 (KHTML, like Gecko) Version/16.2 Safari/605.1.15" etag="bKqSIjWVGTiML1PWQi4y" version="20.8.5" type="github">
  <diagram id="KbEZXw-cHdkrE3BKkjBX" name="Seite-1">
    <mxGraphModel dx="1008" dy="709" grid="1" gridSize="10" guides="1" tooltips="1" connect="1" arrows="1" fold="1" page="1" pageScale="1" pageWidth="827" pageHeight="1169" math="0" shadow="0">
      <root>
        <mxCell id="0" />
        <mxCell id="1" parent="0" />
        <mxCell id="TVaq8hLyKjKKxxEduZ5t-12" style="edgeStyle=orthogonalEdgeStyle;rounded=0;orthogonalLoop=1;jettySize=auto;html=1;exitX=0.75;exitY=1;exitDx=0;exitDy=0;entryX=0;entryY=0.5;entryDx=0;entryDy=0;fontSize=7;" edge="1" parent="1" source="bS1PQ2K4Qz8r77oU7H7q-1" target="TVaq8hLyKjKKxxEduZ5t-2">
          <mxGeometry relative="1" as="geometry" />
        </mxCell>
        <mxCell id="bS1PQ2K4Qz8r77oU7H7q-1" value="" style="rounded=0;whiteSpace=wrap;html=1;" parent="1" vertex="1">
          <mxGeometry x="140" y="740" width="210" height="120" as="geometry" />
        </mxCell>
        <mxCell id="TVaq8hLyKjKKxxEduZ5t-1" value="" style="rounded=0;whiteSpace=wrap;html=1;" vertex="1" parent="1">
          <mxGeometry x="440" y="740" width="210" height="120" as="geometry" />
        </mxCell>
        <mxCell id="TVaq8hLyKjKKxxEduZ5t-2" value="" style="rounded=1;whiteSpace=wrap;html=1;" vertex="1" parent="1">
          <mxGeometry x="320" y="960" width="134" height="50" as="geometry" />
        </mxCell>
        <mxCell id="TVaq8hLyKjKKxxEduZ5t-6" value="" style="rounded=0;whiteSpace=wrap;html=1;" vertex="1" parent="1">
          <mxGeometry x="470" y="770" width="113.75" height="80" as="geometry" />
        </mxCell>
        <mxCell id="TVaq8hLyKjKKxxEduZ5t-7" value="Master" style="text;strokeColor=none;align=center;fillColor=none;html=1;verticalAlign=middle;whiteSpace=wrap;rounded=0;" vertex="1" parent="1">
          <mxGeometry x="210" y="710" width="60" height="30" as="geometry" />
        </mxCell>
        <mxCell id="TVaq8hLyKjKKxxEduZ5t-8" value="Worker" style="text;strokeColor=none;align=center;fillColor=none;html=1;verticalAlign=middle;whiteSpace=wrap;rounded=0;" vertex="1" parent="1">
          <mxGeometry x="515" y="710" width="60" height="30" as="geometry" />
        </mxCell>
        <mxCell id="TVaq8hLyKjKKxxEduZ5t-10" value="PersistantVolume" style="text;strokeColor=none;align=center;fillColor=none;html=1;verticalAlign=middle;whiteSpace=wrap;rounded=0;" vertex="1" parent="1">
          <mxGeometry x="350" y="970" width="60" height="30" as="geometry" />
        </mxCell>
        <mxCell id="TVaq8hLyKjKKxxEduZ5t-14" value="Pod" style="text;strokeColor=none;align=center;fillColor=none;html=1;verticalAlign=middle;whiteSpace=wrap;rounded=0;" vertex="1" parent="1">
          <mxGeometry x="490" y="750" width="60" height="30" as="geometry" />
        </mxCell>
        <mxCell id="TVaq8hLyKjKKxxEduZ5t-15" value="" style="ellipse;whiteSpace=wrap;html=1;fontSize=7;" vertex="1" parent="1">
          <mxGeometry x="503.75" y="820" width="80" height="20" as="geometry" />
        </mxCell>
        <mxCell id="TVaq8hLyKjKKxxEduZ5t-9" value="&lt;font style=&quot;font-size: 7px;&quot;&gt;PersistantVolumeClaim&lt;/font&gt;" style="text;strokeColor=none;align=center;fillColor=none;html=1;verticalAlign=middle;whiteSpace=wrap;rounded=0;" vertex="1" parent="1">
          <mxGeometry x="513.75" y="815" width="60" height="30" as="geometry" />
        </mxCell>
        <mxCell id="TVaq8hLyKjKKxxEduZ5t-11" style="edgeStyle=orthogonalEdgeStyle;rounded=0;orthogonalLoop=1;jettySize=auto;html=1;fontSize=7;exitX=1;exitY=0.5;exitDx=0;exitDy=0;" edge="1" parent="1" source="TVaq8hLyKjKKxxEduZ5t-2" target="TVaq8hLyKjKKxxEduZ5t-15">
          <mxGeometry relative="1" as="geometry">
            <mxPoint x="460" y="985" as="sourcePoint" />
          </mxGeometry>
        </mxCell>
        <mxCell id="TVaq8hLyKjKKxxEduZ5t-17" value="" style="verticalLabelPosition=bottom;verticalAlign=top;html=1;shape=mxgraph.basic.sun;fontSize=7;" vertex="1" parent="1">
          <mxGeometry x="337" y="180" width="100" height="100" as="geometry" />
        </mxCell>
        <mxCell id="TVaq8hLyKjKKxxEduZ5t-18" value="www" style="text;strokeColor=none;align=center;fillColor=none;html=1;verticalAlign=middle;whiteSpace=wrap;rounded=0;" vertex="1" parent="1">
          <mxGeometry x="357" y="215" width="60" height="30" as="geometry" />
        </mxCell>
        <mxCell id="TVaq8hLyKjKKxxEduZ5t-19" value="" style="shape=singleArrow;direction=north;whiteSpace=wrap;html=1;fontSize=7;" vertex="1" parent="1">
          <mxGeometry x="380.5" y="300" width="13" height="50" as="geometry" />
        </mxCell>
        <mxCell id="TVaq8hLyKjKKxxEduZ5t-20" value="ingress" style="text;strokeColor=none;align=center;fillColor=none;html=1;verticalAlign=middle;whiteSpace=wrap;rounded=0;" vertex="1" parent="1">
          <mxGeometry x="384" y="310" width="60" height="30" as="geometry" />
        </mxCell>
      </root>
    </mxGraphModel>
  </diagram>
</mxfile>
